<svg xmlns="http://www.w3.org/2000/svg" xmlns:xlink="http://www.w3.org/1999/xlink" id="Layer_1" x="0px" y="0px" viewBox="0 0 500 500" style="enable-background:new 0 0 500 500;" xml:space="preserve"><style type="text/css">	.st0{fill:#1A539F;}	.st1{font-family:'Helvetica';}	.st2{font-size:55.0763px;}	.st3{fill:#42B3E7;}	.st4{fill:#46AC37;}</style><g>	<text transform="matrix(1 0 0 1.0549 106.1509 430.8216)" class="st0 st1 st2">Programme</text>	<g>		<g>			<path class="st0" d="M86.8,288.2H63.9c-4.1,0-7,0.8-8.7,2.5c-2.6,2.7-3.9,5.5-3.9,8.2V316h26.6v7.6H51.3V360h-7.8v-59.8     c0-6.2,1.9-11.1,5.8-14.4c3.8-3.4,8.8-5,14.7-5h22.8V288.2z"></path>			<path class="st0" d="M143.6,334.3c0,7.8-2.7,14.3-8,19.5c-5.3,5.3-11.8,7.8-19.3,7.7c-7.4-0.1-13.7-2.7-18.8-8     c-5.1-5.3-7.6-11.8-7.6-19.5v-53.4h7.8v52c0,6,1.8,11,5.4,15.1c3.6,4.1,8.1,6.1,13.6,6.1c5.3,0,9.8-1.9,13.5-5.7     c3.7-3.8,5.5-8.5,5.5-14v-53.6h7.8V334.3z"></path>			<polygon class="st0" points="214.7,360 205.8,360 160.3,291 160.3,360 152,360 152,280.7 162.7,280.7 206.5,347.2 206.5,280.7      214.7,280.7    "></polygon>			<path class="st0" d="M307.8,323.5c-1.2,12.4-6.6,22.1-16.1,29.2c-7.9,5.9-16.5,8.8-25.9,8.8c-11.5-0.1-21.4-4.1-29.9-12.2     c-8.5-8-12.6-17.7-12.6-29c0.1-11.5,4.1-21.2,12.2-29.1c8.1-7.8,18-11.7,29.7-11.7c8.6,0,15.8,1.6,21.6,4.9     c6.2,3.6,11.5,9.4,15.9,17.5H294c-7-10.2-16.7-15.2-29.1-15c-8.9,0.1-16.7,3.3-23.3,9.6c-6.8,6.5-10.3,14.3-10.6,23.4     c-0.2,9.2,3.1,17,9.8,23.5c6.5,6.3,14.7,9.8,24.5,10.4c6.7,0.5,13.2-1.6,19.7-6.2c6.5-4.6,10.9-10.3,13.1-17h-44.4v-7.1H307.8z"></path>			<path class="st0" d="M364.7,334.3c0,7.8-2.7,14.3-8,19.5c-5.3,5.3-11.8,7.8-19.3,7.7c-7.4-0.1-13.7-2.7-18.8-8     c-5.1-5.3-7.6-11.8-7.6-19.5v-53.4h7.8v52c0,6,1.8,11,5.4,15.1c3.6,4.1,8.1,6.1,13.6,6.1c5.3,0,9.8-1.9,13.5-5.7     c3.7-3.8,5.5-8.5,5.5-14v-53.6h7.8V334.3z"></path>			<path class="st0" d="M456.5,319.7c0,11.5-4.1,21.3-12.2,29.5c-8.1,8.2-17.9,12.3-29.3,12.3c-11.3,0-21.1-3.9-29.4-11.8     c-8.3-7.9-12.4-17.4-12.4-28.5c0-11.4,4-21.2,12.1-29.4c8.1-8.2,17.8-12.3,29.2-12.3c11.4,0,21.3,3.9,29.6,11.7     C452.3,299,456.5,308.5,456.5,319.7 M448.9,320.2c-0.1-9.2-3.6-17.1-10.3-23.5c-6.7-6.4-14.7-9.6-24-9.6c-9.1,0-17,3.3-23.6,9.8     c-6.6,6.5-9.9,14.4-9.9,23.6c0,9.1,3.3,16.9,9.9,23.5c6.6,6.5,14.5,9.9,23.7,9.9c9.3,0.1,17.4-3.2,24.1-9.8     C445.6,337.5,448.9,329.5,448.9,320.2"></path>		</g>		<path class="st0" d="M274.6,125.3c20.8,9.4,35.3,30.3,35.3,54.6c0,33.1-26.8,59.9-59.9,59.9c-33.1,0-59.9-26.8-59.9-59.9    c0-24.4,14.6-45.4,35.5-54.7c12.7-3.9,8.8-21.7-7.2-13.6c-25.7,11.9-43.6,38-43.6,68.3c0,41.5,33.7,75.2,75.2,75.2    s75.2-33.7,75.2-75.2c0-31.2-19-58-46.2-69.4C266,104.9,261.9,121.4,274.6,125.3"></path>		<path class="st3" d="M309.7,174.4c-0.2,0,0,0.4,0.1,0.6c0.1,1.6,0.2,3.2,0.2,4.9c0,33.1-26.8,59.9-59.9,59.9    c-22.2,0-41.7-12.1-52-30.1c-0.1-0.1-0.1-0.3-0.2-0.3c-0.5,0.3-11.4,6.2-13.5,7.3c-0.1,0.1,0.1,0.2,0.2,0.3    c12.9,22.8,37.4,38.1,65.5,38.1c41.5,0,75.2-33.7,75.2-75.2c0-1.7-0.1-3.4-0.2-5c0-0.2,0.2-0.6,0-0.6    C322.2,174.3,311.9,174.3,309.7,174.4"></path>		<path class="st3" d="M269.1,72h-12.6v-8.9h12.6c4,0,7.3-3.3,7.3-7.3c0-4-3.3-7.3-7.3-7.3h-12.6c0-4-3.3-7.3-7.3-7.3    c-4,0-7.3,3.3-7.3,7.3v133.2c0,4,3.3,7.3,7.3,7.3c4,0,7.3-3.3,7.3-7.3V86.5h12.6c4,0,7.3-3.3,7.3-7.3    C276.4,75.3,273.1,72,269.1,72"></path>		<path class="st4" d="M274.6,125.3c20.6,9.3,34.9,29.8,35.3,53.8c0,0.3,0,0.8,0,0.8h15.3c0,0,0-0.6,0-0.9    c-0.4-30.8-19.3-57.2-46.2-68.5C266,104.9,261.9,121.4,274.6,125.3"></path>	</g></g></svg>